<svg xmlns="http://www.w3.org/2000/svg" viewBox="0 0 329.64 13.558"><style>.a{fill:#0073CF;}.b{fill:#EB2B1E;}.c{fill:#009B3A;}</style><path d="M11.235 5.178c-0.219-0.238-0.293-0.292-0.732-0.567C9.99 4.318 9.167 3.879 8.015 3.879c-1.025 0-1.684 0.311-2.104 0.658C5.416 4.922 4.812 5.709 4.812 6.806c0 0.275 0.018 1.153 0.86 1.904 1.006 0.896 2.031 0.879 2.305 0.879 1.647 0 2.708-0.732 3.404-1.135l-0.018 3.971c-1.739 0.712-2.8 1.097-4.538 1.097 -0.494 0-1.885 0-3.348-0.75 -0.348-0.183-1.263-0.657-2.104-1.755C0.713 10.173 0 8.856 0 6.879c0-3.055 1.756-4.921 3.129-5.781C3.952 0.567 5.178 0.054 7.1 0.054c1.537 0 2.598 0.33 4.154 0.879L11.235 5.178z" class="a"/><path d="M18.048 0.347v4.519h3.861V0.347h4.904v12.918h-4.904V8.418h-3.843v4.847h-4.904V0.347H18.048z" class="a"/><path d="M38.671 0.347v3.001h-4.776v1.83h4.502v3.111h-4.52v1.921h4.812v3.054h-9.68V0.347H38.671z" class="a"/><path d="M47.213 0.347c0.384 0 0.769 0 1.135 0.037 1.683 0.11 2.763 0.658 3.495 1.298 0.439 0.384 0.696 0.714 0.933 1.154 0.201 0.403 0.439 0.933 0.439 1.756 0 0.33 0.018 1.373-0.842 2.416 -0.274 0.348-0.586 0.604-0.933 0.823 -0.311 0.2-0.585 0.329-1.171 0.531l3.806 4.902h-5.563l-2.964-4.573v4.573h-4.849V0.347H47.213zM45.566 6.203h1.007c0.64-0.019 1.208-0.019 1.61-0.586 0.238-0.33 0.238-0.659 0.238-0.787 0-0.11-0.018-0.476-0.256-0.841 -0.366-0.513-0.787-0.586-1.866-0.622h-0.732V6.203z" class="a"/><path d="M59.294 0.347l3.184 4.062c0.732-0.933 1.409-1.81 2.049-2.634 0.202-0.256 0.458-0.586 0.677-0.861 0.165-0.201 0.311-0.384 0.476-0.567h4.428v12.918h-4.556V7.136l-3.038 3.861c-0.475-0.603-0.878-1.116-1.354-1.738 -0.586-0.75-1.117-1.428-1.684-2.142v6.148h-4.556V0.347H59.294z" class="a"/><path d="M90.6 0.347l1.94 3.421 1.903-3.421h4.831l-4.684 7.246v5.671h-4.886v-5.8l-4.794-7.117H90.6z" class="a"/><path d="M109.794 0.347v3.001h-4.776v1.83h4.502v3.111H105v1.921h4.812v3.054h-9.68V0.347H109.794z" class="a"/><path d="M120.971 0.347v3.075h-4.282v1.701h4.172v3.184h-4.172v4.958h-4.867V0.347H120.971z" class="a"/><path d="M131.797 0.347v3.075h-4.282v1.701h4.172v3.184h-4.172v4.958h-4.867V0.347H131.797z" class="a"/><path d="M145.611 7.722c0.128-0.128 0.256-0.276 0.366-0.404 0.458-0.494 0.915-1.208 0.988-1.336 0.11-0.183 0.202-0.366 0.275-0.549h3.33c-0.348 1.116-0.841 2.288-2.927 4.465l3.184 3.366h-5.27l-0.842-0.896c-0.275 0.183-0.531 0.347-0.805 0.475 -0.586 0.293-1.592 0.677-3.019 0.677 -1.244-0.018-1.958-0.256-2.562-0.567 -0.091-0.036-0.494-0.238-0.805-0.512 -0.293-0.256-0.549-0.603-0.604-0.677 -0.274-0.385-0.622-1.025-0.622-1.994 0-0.366 0-1.244 0.86-2.232 0.659-0.768 1.41-1.172 2.141-1.574 -0.567-0.879-0.86-1.373-0.86-2.287 0-1.135 0.385-1.739 0.86-2.269 0.677-0.75 1.72-1.409 3.403-1.409 0.22 0 1.116 0 1.903 0.311 0.128 0.055 0.458 0.202 0.823 0.475 0.146 0.11 0.384 0.311 0.622 0.623 0.22 0.274 0.623 0.934 0.623 1.793 0 0.933-0.421 1.537-0.787 1.958 -0.11 0.11-0.348 0.366-0.677 0.586 -0.219 0.164-0.457 0.31-0.933 0.548L145.611 7.722zM141.036 8.124c-0.293 0.219-0.696 0.513-0.696 1.153 0 0.128 0.018 0.695 0.567 1.062 0.219 0.146 0.421 0.2 0.64 0.2 0.549 0 0.897-0.293 1.116-0.457L141.036 8.124zM143.323 4.025c0.238-0.292 0.311-0.457 0.311-0.768 0-0.128-0.018-0.201-0.092-0.329 -0.11-0.219-0.329-0.421-0.769-0.421 -0.073 0-0.164 0-0.238 0.037 -0.201 0.073-0.494 0.274-0.494 0.713 0 0.512 0.275 0.842 0.641 1.28C143.104 4.263 143.195 4.171 143.323 4.025z" class="b"/><path d="M166.854 4.556c-0.311-0.147-0.623-0.293-0.915-0.421 -0.549-0.238-1.556-0.677-2.91-0.677 -1.244 0-2.05 0.348-2.579 0.695 -0.055 0.037-0.403 0.276-0.641 0.513 -0.421 0.439-0.878 1.299-0.878 2.415 0 0.256 0.018 0.843 0.421 1.611 0.073 0.164 0.457 0.879 1.281 1.244 0.476 0.201 1.007 0.201 1.153 0.201 0.348 0 0.714-0.037 1.08-0.092V9.002l-1.574 0.018V5.947h5.582v6.769c-1.794 0.476-3.24 0.843-5.015 0.843 -0.439 0-1.427-0.019-2.617-0.311 -0.604-0.146-2.104-0.549-3.421-1.885 -0.202-0.2-0.476-0.512-0.75-0.969 -0.458-0.733-0.97-1.757-0.97-3.405 0-0.53 0.018-1.848 0.915-3.384 0.402-0.696 0.768-1.099 1.025-1.355 0.256-0.256 0.787-0.695 1.482-1.079 1.043-0.585 2.525-1.116 4.923-1.116 1.665 0 2.726 0.256 4.41 0.714V4.556z" class="b"/><path d="M178.648 0.347v3.001h-4.775v1.83h4.502v3.111h-4.52v1.921h4.812v3.054h-9.68V0.347H178.648z" class="b"/><path d="M185.624 0.347v12.918h-4.959V0.347H185.624z" class="b"/><path d="M195.314 3.806c-0.513-0.201-1.007-0.421-2.049-0.421 -0.165 0-0.238 0-0.329 0.037 -0.294 0.073-0.659 0.347-0.659 0.677 0 0.475 0.567 0.933 0.988 1.299 0.292 0.256 0.567 0.512 0.896 0.806 0.219 0.183 0.439 0.384 0.622 0.548 1.079 1.099 1.189 2.307 1.189 2.764 0 0.311-0.018 1.408-0.914 2.433 -0.329 0.366-0.641 0.604-0.787 0.714 -0.75 0.567-1.702 0.823-3.367 0.823 -0.695 0-1.408-0.037-2.104-0.148 -0.458-0.055-0.896-0.146-1.335-0.237v-3.33c0.329 0.11 1.299 0.513 2.342 0.513 0.146 0 0.31-0.018 0.457-0.055 0.659-0.128 0.915-0.531 0.915-0.841 0-0.367-0.311-0.677-0.97-1.3 -0.237-0.218-0.457-0.439-0.713-0.695 -0.165-0.147-0.292-0.256-0.475-0.439 -0.531-0.549-1.537-1.683-1.537-3.165 0-0.476 0.109-1.701 1.482-2.8 0.714-0.567 1.574-0.897 3.147-0.897 1.446 0 2.672 0.348 3.203 0.457V3.806z" class="b"/><path d="M201.891 0.393l3.184 4.062c0.732-0.933 1.41-1.812 2.05-2.635 0.201-0.256 0.457-0.585 0.677-0.859 0.165-0.202 0.311-0.385 0.475-0.567h4.429v12.918h-4.556v-6.13l-3.038 3.862c-0.475-0.604-0.879-1.117-1.354-1.739 -0.585-0.75-1.116-1.426-1.683-2.14v6.148h-4.557V0.393H201.891z" class="b"/><path d="M236.805 0.347c0.385 0 0.768 0 1.135 0.037 1.683 0.11 2.762 0.658 3.494 1.298 0.44 0.384 0.696 0.714 0.934 1.154 0.201 0.403 0.44 0.933 0.44 1.756 0 0.33 0.018 1.373-0.842 2.416 -0.275 0.348-0.586 0.604-0.933 0.823 -0.311 0.2-0.586 0.329-1.171 0.531l3.806 4.902h-5.563l-2.964-4.573v4.573h-4.849V0.347H236.805zM235.158 6.203h1.007c0.64-0.019 1.207-0.019 1.61-0.586 0.238-0.33 0.238-0.659 0.238-0.787 0-0.11-0.018-0.476-0.256-0.841 -0.366-0.513-0.787-0.586-1.867-0.622h-0.732V6.203z" class="b"/><path d="M256.657 7.722c0.128-0.128 0.256-0.276 0.366-0.404 0.458-0.494 0.914-1.208 0.988-1.336 0.109-0.183 0.201-0.366 0.274-0.549h3.331c-0.348 1.116-0.842 2.288-2.928 4.465l3.184 3.366h-5.271l-0.842-0.896c-0.274 0.183-0.53 0.347-0.805 0.475 -0.585 0.293-1.592 0.677-3.019 0.677 -1.245-0.018-1.958-0.256-2.562-0.567 -0.092-0.036-0.495-0.238-0.806-0.512 -0.293-0.256-0.549-0.603-0.604-0.677 -0.273-0.385-0.621-1.025-0.621-1.994 0-0.366 0-1.244 0.86-2.232 0.659-0.768 1.408-1.172 2.141-1.574 -0.568-0.879-0.86-1.373-0.86-2.287 0-1.135 0.384-1.739 0.86-2.269C251.022 0.658 252.065 0 253.747 0c0.22 0 1.116 0 1.903 0.311 0.128 0.055 0.458 0.202 0.823 0.475 0.147 0.11 0.385 0.311 0.622 0.623 0.22 0.274 0.622 0.934 0.622 1.793 0 0.933-0.421 1.537-0.786 1.958 -0.11 0.11-0.348 0.366-0.678 0.586 -0.219 0.164-0.457 0.31-0.932 0.548L256.657 7.722zM252.083 8.124c-0.293 0.219-0.696 0.513-0.696 1.153 0 0.128 0.019 0.695 0.568 1.062 0.219 0.146 0.421 0.2 0.64 0.2 0.549 0 0.897-0.293 1.117-0.457L252.083 8.124zM254.37 4.025c0.237-0.292 0.31-0.457 0.31-0.768 0-0.128-0.018-0.201-0.091-0.329 -0.11-0.219-0.329-0.421-0.769-0.421 -0.073 0-0.164 0-0.237 0.037 -0.202 0.073-0.495 0.274-0.495 0.713 0 0.512 0.275 0.842 0.641 1.28C254.151 4.263 254.242 4.171 254.37 4.025z" class="c"/><path d="M270.91 0.347v4.519h3.861V0.347h4.904v12.918h-4.904V8.418h-3.842v4.847h-4.904V0.347H270.91z" class="c"/><path d="M299.862 0.347l2.287 6.77 2.269-6.77h4.41l-5.16 12.918h-3.714l-5.179-12.918H299.862z" class="c"/><path d="M314.687 0.347v12.918h-4.959V0.347H314.687z" class="c"/><path d="M320.674 0.347l2.287 6.77 2.269-6.77h4.41l-5.16 12.918h-3.715l-5.178-12.918H320.674z" class="c"/><path d="M81.679 0.256l5.124 13.009h-4.977l-0.714-2.14h-4.08l-0.842 2.14h-5.196l5.911-13.009H81.679zM77.748 8.41h2.738l-1.309-3.914L77.748 8.41z" class="a"/><path d="M224.276 0.302l5.124 13.009h-4.978l-0.713-2.14h-4.081l-0.842 2.14h-5.197L219.5 0.302H224.276zM220.344 8.456h2.738l-1.308-3.914L220.344 8.456z" class="b"/><path d="M291.244 0.256l5.124 13.009h-4.977l-0.714-2.14h-4.08l-0.843 2.14h-5.197l5.911-13.009H291.244zM287.313 8.41h2.738l-1.309-3.914L287.313 8.41z" class="c"/></svg>
